<svg width="1000" height="635" viewBox="0 0 1000 635" fill="none" xmlns="http://www.w3.org/2000/svg">
<g clip-path="url(#clip0)">
<rect width="1000" height="635" fill="white"/>
<path fill-rule="evenodd" clip-rule="evenodd" d="M510.642 -0.000488281L502.656 13.7896C494.097 27.5808 477.552 55.1621 461.579 82.7422C445.034 110.324 428.489 137.905 430.833 165.448C432.605 192.993 453.267 220.5 467.634 248.479C482.571 275.998 490.64 303.53 494.675 317.296L498.709 331.062L387.66 331.283L387.632 317.509C387.605 303.735 387.55 276.187 387.495 248.639C387.439 220.632 387.384 193.083 387.329 165.535C387.275 137.987 387.22 110.439 387.165 82.8905C387.11 55.3423 387.055 27.7941 387.027 14.02L387 0.245947L510.642 -0.000488281Z" fill="#1A6EC3"/>
<path fill-rule="evenodd" clip-rule="evenodd" d="M511 635L503.028 622.351C494.486 609.702 477.972 584.404 462.028 559.105C445.514 533.807 429 508.509 431.278 483.211C432.986 457.913 453.486 432.614 467.722 406.895C482.528 381.596 490.5 356.298 494.486 343.649L498.472 331H388V343.649C388 356.298 388 381.596 388 406.895C388 432.614 388 457.913 388 483.211C388 508.509 388 533.807 388 559.105C388 584.404 388 609.702 388 622.351V635H511Z" fill="#1A6EC3"/>
<path d="M0 0H396V317.5V635H0V0Z" fill="#1A6EC3"/>
</g>
<defs>
<clipPath id="clip0">
<rect width="1000" height="635" fill="white"/>
</clipPath>
</defs>
</svg>
